<svg xmlns="http://www.w3.org/2000/svg" xmlns:xlink="http://www.w3.org/1999/xlink" width="105.98" height="100.91" viewBox="0 0 105.98 100.91">
  <defs>
    <style>
      .cls-1 {
        fill: #fff;
        stroke-linejoin: round;
      }

      .cls-2 {
        fill: url(#linear-gradient);
      }

      .cls-3, .cls-4 {
        stroke: none;
      }

      .cls-4 {
        fill: #518baf;
      }

      .cls-5 {
        filter: url(#Path_29);
      }
    </style>
    <filter id="Path_29" x="0" y="0" width="105.98" height="100.91" filterUnits="userSpaceOnUse">
      <feOffset dy="3" input="SourceAlpha"/>
      <feGaussianBlur stdDeviation="3" result="blur"/>
      <feFlood flood-opacity="0.161"/>
      <feComposite operator="in" in2="blur"/>
      <feComposite in="SourceGraphic"/>
    </filter>
    <linearGradient id="linear-gradient" x1="0.5" x2="0.5" y2="1" gradientUnits="objectBoundingBox">
      <stop offset="0" stop-color="#0f2027"/>
      <stop offset="1" stop-color="#2c5364"/>
    </linearGradient>
  </defs>
  <g id="Group_73" data-name="Group 73" transform="translate(9 6)">
    <g id="Group_77" data-name="Group 77">
      <g class="cls-5" transform="matrix(1, 0, 0, 1, -9, -6)">
        <g id="Path_29-2" data-name="Path 29" class="cls-1" transform="translate(9 6)">
          <path class="cls-3" d="M 43.990234375 82.410400390625 C 38.11528015136719 82.410400390625 32.41655731201172 81.32628631591797 27.0523796081543 79.18817901611328 C 21.87275695800781 77.12363433837891 17.22134590148926 74.16840362548828 13.22735691070557 70.40456390380859 C 9.235456466674805 66.64270782470703 6.101701259613037 62.26286697387695 3.913134336471558 57.38669967651367 C 1.648345470428467 52.3407096862793 0.5000010132789612 46.9805793762207 0.5000010132789612 41.4552001953125 C 0.5000010132789612 35.9298210144043 1.648345470428467 30.56968879699707 3.913134336471558 25.52370071411133 C 6.101701259613037 20.64753341674805 9.235456466674805 16.2676887512207 13.22735691070557 12.50583362579346 C 17.22134590148926 8.742000579833984 21.87275695800781 5.78676700592041 27.0523796081543 3.722222328186035 C 32.41655731201172 1.584111332893372 38.11528015136719 0.5000001788139343 43.990234375 0.5000001788139343 C 49.86518859863281 0.5000001788139343 55.56391143798828 1.584111332893372 60.9280891418457 3.722222328186035 C 66.10771179199219 5.78676700592041 70.75912475585938 8.742000579833984 74.75311279296875 12.50583362579346 C 78.74501037597656 16.2676887512207 81.87876892089844 20.64753341674805 84.06733703613281 25.52370071411133 C 86.33212280273438 30.56968879699707 87.48046875 35.9298210144043 87.48046875 41.4552001953125 C 87.48046875 46.9805793762207 86.33212280273438 52.3407096862793 84.06733703613281 57.38669967651367 C 81.87876892089844 62.26286697387695 78.74501037597656 66.64270782470703 74.75311279296875 70.40456390380859 C 70.75912475585938 74.16840362548828 66.10771179199219 77.12363433837891 60.9280891418457 79.18817901611328 C 55.56391143798828 81.32628631591797 49.86518859863281 82.410400390625 43.990234375 82.410400390625 Z"/>
          <path class="cls-4" d="M 43.990234375 1 C 38.17896270751953 1 32.54253005981445 2.072151184082031 27.23750686645508 4.186683654785156 C 22.11658477783203 6.227836608886719 17.51827239990234 9.149223327636719 13.57026672363281 12.86972045898438 C 9.626457214355469 16.58625030517578 6.530799865722656 20.91255187988281 4.369293212890625 25.72844696044922 C 2.133590698242188 30.70962524414062 1 36.00086975097656 1 41.4552001953125 C 1 46.90953063964844 2.133590698242188 52.20077514648438 4.369293212890625 57.18195343017578 C 6.530799865722656 61.99784851074219 9.626457214355469 66.32415771484375 13.57026672363281 70.04067993164062 C 17.51827239990234 73.76117706298828 22.11658477783203 76.68256378173828 27.23750686645508 78.72371673583984 C 32.54253005981445 80.83824920654297 38.17896270751953 81.910400390625 43.990234375 81.910400390625 C 49.80150604248047 81.910400390625 55.43793869018555 80.83824920654297 60.74295043945312 78.72371673583984 C 65.86386871337891 76.68256378173828 70.46219635009766 73.76117706298828 74.41020202636719 70.04067993164062 C 78.35401153564453 66.32414245605469 81.44966888427734 61.99784851074219 83.61117553710938 57.18195343017578 C 85.84687805175781 52.20077514648438 86.98046875 46.90953063964844 86.98046875 41.4552001953125 C 86.98046875 36.00086975097656 85.84687805175781 30.70962524414062 83.61117553710938 25.72844696044922 C 81.44966888427734 20.91255187988281 78.35401153564453 16.58625793457031 74.41020202636719 12.86972045898438 C 70.46219635009766 9.149223327636719 65.86386871337891 6.227836608886719 60.74295043945312 4.186683654785156 C 55.43793869018555 2.072151184082031 49.80150604248047 1 43.990234375 1 M 43.990234375 0 C 68.28536224365234 0 87.98046875 18.56012725830078 87.98046875 41.4552001953125 C 87.98046875 64.35027313232422 68.28536224365234 82.910400390625 43.990234375 82.910400390625 C 19.69509124755859 82.910400390625 0 64.35027313232422 0 41.4552001953125 C 0 18.56012725830078 19.69509124755859 0 43.990234375 0 Z"/>
        </g>
      </g>
    </g>
    <path id="Icon_awesome-arrow-circle-right" data-name="Icon awesome-arrow-circle-right" class="cls-2" d="M22.411.562A21.6,21.6,0,0,1,44.26,21.9,21.6,21.6,0,0,1,22.411,43.244,21.6,21.6,0,0,1,.563,21.9,21.6,21.6,0,0,1,22.411.562ZM19.865,12.919l6.651,6.23H10.43a2.085,2.085,0,0,0-2.114,2.065v1.377a2.085,2.085,0,0,0,2.114,2.065H26.516l-6.651,6.23a2.034,2.034,0,0,0-.035,2.952l.969.938a2.141,2.141,0,0,0,2.987,0l11.691-11.41a2.023,2.023,0,0,0,0-2.917L23.785,9.021a2.141,2.141,0,0,0-2.987,0l-.969.938a2.044,2.044,0,0,0,.035,2.96Z" transform="translate(21.007 19.236)"/>
  </g>
</svg>
